<?xml version="1.0" standalone="no"?>
<!DOCTYPE svg PUBLIC "-//W3C//DTD SVG 20010904//EN"
 "http://www.w3.org/TR/2001/REC-SVG-20010904/DTD/svg10.dtd">
<svg version="1.0" xmlns="http://www.w3.org/2000/svg"
 width="940.000000pt" height="940.000000pt" viewBox="0 0 940.000000 940.000000"
 preserveAspectRatio="xMidYMid meet">
<metadata>
Created by potrace 1.11, written by Peter Selinger 2001-2013
</metadata>
<g transform="translate(0.000000,940.000000) scale(0.100000,-0.100000)"
fill="#000000" stroke="none">
<path d="M4668 9389 c-16 -4 -28 -5 -28 -3 0 9 -85 -50 -102 -70 -9 -12 -43
-79 -74 -151 -31 -71 -68 -155 -81 -185 -14 -30 -50 -113 -80 -184 -31 -71
-62 -141 -69 -155 -8 -14 -14 -29 -14 -33 0 -4 -11 -32 -25 -62 -14 -30 -64
-144 -111 -253 -47 -109 -97 -222 -110 -251 -13 -29 -36 -80 -50 -115 -15 -34
-35 -82 -46 -107 -11 -25 -26 -58 -33 -75 -102 -234 -156 -358 -172 -395 -11
-25 -26 -58 -33 -75 -7 -16 -104 -241 -217 -500 -113 -258 -227 -522 -255
-585 -27 -63 -56 -129 -63 -146 -8 -16 -36 -82 -63 -145 -27 -63 -59 -134 -70
-159 -11 -25 -98 -223 -192 -440 -95 -217 -180 -413 -190 -435 -10 -22 -45
-103 -78 -181 -33 -78 -70 -161 -81 -185 -20 -45 -198 -453 -343 -789 -44
-102 -88 -203 -98 -225 -10 -22 -39 -89 -65 -150 -26 -60 -55 -128 -65 -150
-10 -22 -42 -94 -70 -160 -69 -158 -156 -357 -186 -423 -13 -29 -24 -55 -24
-57 0 -2 -11 -28 -24 -57 -13 -29 -45 -102 -71 -163 -26 -60 -61 -138 -76
-173 -16 -34 -29 -65 -29 -67 0 -2 -11 -28 -24 -57 -14 -29 -85 -192 -159
-363 -74 -170 -242 -555 -372 -855 -237 -544 -237 -544 -233 -606 5 -76 38
-132 100 -168 55 -31 98 -38 173 -26 86 14 147 23 270 40 44 6 90 13 102 15
12 2 57 8 100 15 43 6 94 13 113 16 19 3 49 7 65 9 26 4 80 12 135 20 8 2 40
6 70 9 30 4 62 8 70 11 8 2 39 7 69 10 30 4 62 8 72 10 9 2 39 6 66 10 26 4
59 9 73 11 14 2 45 6 70 9 25 3 57 8 72 11 15 3 42 7 60 9 28 4 133 19 203 29
11 2 44 7 74 11 30 3 63 8 74 11 11 2 57 8 101 14 92 13 130 18 166 25 14 3
45 7 69 10 23 3 55 7 70 10 14 2 44 7 66 9 43 6 105 15 145 22 14 2 75 11 137
19 62 9 120 18 130 19 10 2 47 7 83 11 36 4 67 8 70 10 3 2 29 6 59 10 30 4
61 8 70 10 9 1 41 6 71 10 30 4 64 9 74 11 11 2 101 15 200 29 100 14 192 28
206 30 14 2 61 9 106 15 44 6 90 12 101 14 137 27 147 26 448 -19 88 -13 185
-27 215 -30 30 -4 57 -8 60 -10 3 -2 34 -6 70 -10 36 -4 67 -8 70 -10 3 -2 28
-6 55 -9 28 -4 113 -16 190 -27 77 -11 156 -22 175 -25 19 -2 46 -6 60 -9 14
-2 48 -6 75 -10 28 -3 57 -8 65 -10 8 -2 38 -6 65 -10 28 -3 61 -8 75 -10 14
-3 41 -7 60 -9 19 -3 69 -10 110 -16 41 -6 91 -13 110 -16 19 -2 46 -6 60 -9
14 -2 48 -7 75 -10 28 -3 61 -8 75 -10 31 -6 64 -11 165 -25 44 -6 91 -13 105
-15 14 -3 42 -7 63 -10 20 -3 54 -7 75 -10 20 -3 69 -10 107 -16 39 -5 81 -11
95 -14 36 -5 178 -26 214 -31 29 -4 47 -6 131 -18 85 -12 323 -47 345 -50 34
-6 109 -17 140 -21 14 -2 57 -8 95 -14 39 -6 88 -13 110 -15 22 -3 95 -14 162
-24 67 -10 137 -17 157 -16 74 3 144 55 178 130 35 81 23 128 -120 446 -11 24
-111 252 -222 508 -256 588 -415 954 -541 1243 -55 125 -106 242 -114 260 -7
18 -23 55 -36 82 -12 28 -57 133 -101 235 -44 102 -91 209 -104 238 -13 29
-36 80 -50 115 -15 34 -35 82 -46 107 -11 25 -26 59 -33 75 -20 46 -233 536
-423 970 -93 215 -199 458 -235 540 -80 185 -233 536 -257 590 -10 22 -39 90
-65 150 -90 207 -113 260 -219 505 -59 135 -113 259 -121 275 -7 17 -91 208
-185 425 -95 217 -181 415 -192 440 -12 25 -33 74 -48 110 -15 36 -66 153
-113 260 -46 107 -182 420 -302 695 -119 275 -227 523 -240 550 -12 28 -50
115 -85 195 -35 80 -75 158 -89 173 -49 54 -133 83 -193 66z m-205 -5427 c-16
-14 -89 -82 -163 -152 -74 -70 -153 -144 -175 -165 -49 -45 -286 -269 -330
-310 -65 -62 -311 -294 -345 -325 -30 -28 -92 -87 -345 -325 -18 -16 -97 -91
-176 -166 -79 -75 -160 -151 -179 -169 -19 -18 -95 -89 -169 -159 -73 -69
-150 -141 -170 -160 -45 -42 -268 -253 -337 -318 -28 -26 -111 -104 -184 -173
-73 -69 -150 -141 -170 -160 -20 -19 -93 -88 -162 -153 -68 -64 -128 -120
-132 -124 -8 -9 53 136 146 344 11 26 22 53 24 58 2 9 107 249 139 320 20 45
220 505 525 1205 149 344 279 643 289 665 11 22 30 68 45 102 14 35 38 89 52
120 44 97 47 105 224 513 95 217 180 413 190 435 10 22 52 121 95 220 42 99
85 198 95 220 10 22 95 218 190 435 94 217 180 413 190 436 10 22 80 182 155
355 75 173 143 328 150 344 14 30 165 378 280 645 34 80 81 188 105 240 61
138 72 164 121 278 l44 103 3 -2077 2 -2077 -27 -25z m637 3768 c95 -217 209
-480 255 -585 258 -594 528 -1214 540 -1240 8 -16 74 -169 148 -340 204 -468
477 -1096 492 -1130 21 -47 107 -244 305 -700 211 -486 216 -497 240 -550 10
-22 55 -125 100 -230 45 -104 91 -210 102 -235 12 -25 33 -74 48 -110 46 -108
641 -1474 652 -1495 11 -21 -6 -8 -77 60 -73 69 -460 434 -559 526 -38 35 -90
84 -116 109 -61 58 -315 298 -360 340 -19 18 -96 90 -170 160 -74 70 -153 144
-175 164 -22 21 -101 95 -175 166 -74 70 -151 142 -170 160 -34 31 -237 222
-325 305 -219 208 -334 316 -356 336 -27 25 -278 262 -378 357 -31 30 -89 84
-128 120 l-73 66 0 2075 c0 1141 2 2072 4 2070 3 -2 82 -182 176 -399z m-613
-6757 c-2 -2 -51 -10 -108 -18 -57 -9 -115 -18 -129 -20 -14 -2 -47 -7 -75
-11 -27 -3 -57 -8 -65 -9 -9 -2 -43 -6 -75 -10 -33 -4 -69 -9 -80 -11 -11 -3
-40 -7 -65 -10 -25 -2 -67 -9 -95 -14 -50 -9 -89 -15 -175 -25 -25 -3 -70 -9
-100 -15 -70 -11 -119 -19 -178 -26 -26 -3 -87 -11 -137 -19 -143 -22 -167
-26 -215 -31 -25 -3 -52 -7 -60 -9 -8 -2 -37 -7 -65 -10 -55 -7 -97 -13 -135
-20 -14 -2 -47 -7 -75 -10 -27 -3 -57 -8 -65 -10 -8 -2 -37 -6 -65 -10 -27 -3
-77 -10 -110 -15 -33 -5 -78 -11 -100 -15 -22 -3 -67 -10 -100 -15 -33 -5 -82
-11 -110 -15 -27 -3 -79 -11 -115 -16 -36 -6 -78 -12 -95 -15 -16 -2 -46 -6
-65 -9 -19 -3 -50 -8 -68 -10 -39 -5 -98 -13 -212 -30 -117 -17 -111 -21 -50
36 30 28 118 111 195 184 77 73 158 149 180 170 22 20 99 92 170 160 72 67
146 137 165 155 40 37 114 107 325 306 83 78 166 156 185 174 19 18 76 71 126
119 50 47 155 147 234 221 79 74 180 169 225 211 44 42 96 91 115 109 19 18
96 90 170 160 74 70 151 142 170 160 30 28 177 167 400 377 36 34 83 78 105
99 22 20 81 75 130 122 l90 86 3 -1209 c1 -664 1 -1210 -1 -1212z m523 2337
c20 -19 97 -91 170 -160 73 -69 152 -143 175 -165 23 -22 73 -69 111 -104 38
-35 112 -105 164 -155 53 -50 158 -149 235 -221 76 -71 182 -171 234 -221 132
-125 172 -163 302 -284 118 -111 145 -136 274 -259 112 -105 363 -342 405
-381 46 -43 303 -285 405 -381 44 -42 96 -91 115 -109 19 -18 96 -90 171 -162
75 -71 146 -137 158 -147 26 -22 27 -31 4 -26 -10 1 -47 6 -83 10 -36 4 -67 8
-70 10 -3 2 -33 7 -65 10 -33 4 -62 9 -65 10 -3 2 -37 6 -75 10 -39 4 -73 9
-76 11 -3 1 -28 6 -55 9 -27 3 -60 8 -74 10 -14 3 -47 7 -75 10 -27 4 -57 8
-65 10 -8 2 -35 7 -60 10 -40 5 -103 14 -210 30 -19 3 -84 12 -145 20 -117 17
-155 23 -195 30 -14 2 -47 7 -75 10 -27 3 -75 10 -105 15 -30 5 -75 12 -100
15 -25 3 -56 7 -70 10 -14 2 -45 7 -70 10 -25 3 -56 8 -70 10 -14 2 -45 7 -70
10 -25 3 -56 8 -70 10 -22 4 -62 10 -135 20 -64 9 -184 26 -205 30 -34 5 -168
25 -205 29 -37 5 -124 18 -147 22 -9 1 -38 5 -65 9 -26 4 -59 9 -73 11 -14 2
-61 8 -105 14 -44 6 -92 13 -107 16 l-28 6 0 1211 0 1210 26 -24 c15 -13 43
-40 64 -59z"/>
</g>
</svg>
